<svg id="container" width="1110.265625" xmlns="http://www.w3.org/2000/svg" class="flowchart" height="1219" viewBox="0 0 1110.265625 1219" role="graphics-document document" aria-roledescription="flowchart-v2"><style>#container{font-family:"trebuchet ms",verdana,arial,sans-serif;font-size:16px;fill:#333;}@keyframes edge-animation-frame{from{stroke-dashoffset:0;}}@keyframes dash{to{stroke-dashoffset:0;}}#container .edge-animation-slow{stroke-dasharray:9,5!important;stroke-dashoffset:900;animation:dash 50s linear infinite;stroke-linecap:round;}#container .edge-animation-fast{stroke-dasharray:9,5!important;stroke-dashoffset:900;animation:dash 20s linear infinite;stroke-linecap:round;}#container .error-icon{fill:#552222;}#container .error-text{fill:#552222;stroke:#552222;}#container .edge-thickness-normal{stroke-width:1px;}#container .edge-thickness-thick{stroke-width:3.5px;}#container .edge-pattern-solid{stroke-dasharray:0;}#container .edge-thickness-invisible{stroke-width:0;fill:none;}#container .edge-pattern-dashed{stroke-dasharray:3;}#container .edge-pattern-dotted{stroke-dasharray:2;}#container .marker{fill:#333333;stroke:#333333;}#container .marker.cross{stroke:#333333;}#container svg{font-family:"trebuchet ms",verdana,arial,sans-serif;font-size:16px;}#container p{margin:0;}#container .label{font-family:"trebuchet ms",verdana,arial,sans-serif;color:#333;}#container .cluster-label text{fill:#333;}#container .cluster-label span{color:#333;}#container .cluster-label span p{background-color:transparent;}#container .label text,#container span{fill:#333;color:#333;}#container .node rect,#container .node circle,#container .node ellipse,#container .node polygon,#container .node path{fill:#ECECFF;stroke:#9370DB;stroke-width:1px;}#container .rough-node .label text,#container .node .label text,#container .image-shape .label,#container .icon-shape .label{text-anchor:middle;}#container .node .katex path{fill:#000;stroke:#000;stroke-width:1px;}#container .rough-node .label,#container .node .label,#container .image-shape .label,#container .icon-shape .label{text-align:center;}#container .node.clickable{cursor:pointer;}#container .root .anchor path{fill:#333333!important;stroke-width:0;stroke:#333333;}#container .arrowheadPath{fill:#333333;}#container .edgePath .path{stroke:#333333;stroke-width:2.0px;}#container .flowchart-link{stroke:#333333;fill:none;}#container .edgeLabel{background-color:rgba(232,232,232, 0.8);text-align:center;}#container .edgeLabel p{background-color:rgba(232,232,232, 0.8);}#container .edgeLabel rect{opacity:0.5;background-color:rgba(232,232,232, 0.8);fill:rgba(232,232,232, 0.8);}#container .labelBkg{background-color:rgba(232, 232, 232, 0.5);}#container .cluster rect{fill:#ffffde;stroke:#aaaa33;stroke-width:1px;}#container .cluster text{fill:#333;}#container .cluster span{color:#333;}#container div.mermaidTooltip{position:absolute;text-align:center;max-width:200px;padding:2px;font-family:"trebuchet ms",verdana,arial,sans-serif;font-size:12px;background:hsl(80, 100%, 96.2745098039%);border:1px solid #aaaa33;border-radius:2px;pointer-events:none;z-index:100;}#container .flowchartTitleText{text-anchor:middle;font-size:18px;fill:#333;}#container rect.text{fill:none;stroke-width:0;}#container .icon-shape,#container .image-shape{background-color:rgba(232,232,232, 0.8);text-align:center;}#container .icon-shape p,#container .image-shape p{background-color:rgba(232,232,232, 0.8);padding:2px;}#container .icon-shape rect,#container .image-shape rect{opacity:0.5;background-color:rgba(232,232,232, 0.8);fill:rgba(232,232,232, 0.8);}#container .label-icon{display:inline-block;height:1em;overflow:visible;vertical-align:-0.125em;}#container .node .label-icon path{fill:currentColor;stroke:revert;stroke-width:revert;}#container :root{--mermaid-font-family:"trebuchet ms",verdana,arial,sans-serif;}</style><g><marker id="container_flowchart-v2-pointEnd" class="marker flowchart-v2" viewBox="0 0 10 10" refX="5" refY="5" markerUnits="userSpaceOnUse" markerWidth="8" markerHeight="8" orient="auto"><path d="M 0 0 L 10 5 L 0 10 z" class="arrowMarkerPath" style="stroke-width: 1; stroke-dasharray: 1, 0;"></path></marker><marker id="container_flowchart-v2-pointStart" class="marker flowchart-v2" viewBox="0 0 10 10" refX="4.5" refY="5" markerUnits="userSpaceOnUse" markerWidth="8" markerHeight="8" orient="auto"><path d="M 0 5 L 10 10 L 10 0 z" class="arrowMarkerPath" style="stroke-width: 1; stroke-dasharray: 1, 0;"></path></marker><marker id="container_flowchart-v2-circleEnd" class="marker flowchart-v2" viewBox="0 0 10 10" refX="11" refY="5" markerUnits="userSpaceOnUse" markerWidth="11" markerHeight="11" orient="auto"><circle cx="5" cy="5" r="5" class="arrowMarkerPath" style="stroke-width: 1; stroke-dasharray: 1, 0;"></circle></marker><marker id="container_flowchart-v2-circleStart" class="marker flowchart-v2" viewBox="0 0 10 10" refX="-1" refY="5" markerUnits="userSpaceOnUse" markerWidth="11" markerHeight="11" orient="auto"><circle cx="5" cy="5" r="5" class="arrowMarkerPath" style="stroke-width: 1; stroke-dasharray: 1, 0;"></circle></marker><marker id="container_flowchart-v2-crossEnd" class="marker cross flowchart-v2" viewBox="0 0 11 11" refX="12" refY="5.2" markerUnits="userSpaceOnUse" markerWidth="11" markerHeight="11" orient="auto"><path d="M 1,1 l 9,9 M 10,1 l -9,9" class="arrowMarkerPath" style="stroke-width: 2; stroke-dasharray: 1, 0;"></path></marker><marker id="container_flowchart-v2-crossStart" class="marker cross flowchart-v2" viewBox="0 0 11 11" refX="-1" refY="5.2" markerUnits="userSpaceOnUse" markerWidth="11" markerHeight="11" orient="auto"><path d="M 1,1 l 9,9 M 10,1 l -9,9" class="arrowMarkerPath" style="stroke-width: 2; stroke-dasharray: 1, 0;"></path></marker><g class="root"><g class="clusters"><g class="cluster" id="subGraph1" data-look="classic"><rect style="" x="896.203125" y="8" width="206.0625" height="1203"></rect><g class="cluster-label" transform="translate(929.125, 8)"><foreignObject width="140.21875" height="24"><div xmlns="http://www.w3.org/1999/xhtml" style="display: table-cell; white-space: nowrap; line-height: 1.5; max-width: 200px; text-align: center;"><span class="nodeLabel"><p>其他 freqtrade 模块</p></span></div></foreignObject></g></g><g class="cluster" id="subGraph0" data-look="classic"><rect style="" x="8" y="19" width="838.203125" height="847"></rect><g class="cluster-label" transform="translate(376.65625, 19)"><foreignObject width="100.890625" height="24"><div xmlns="http://www.w3.org/1999/xhtml" style="display: table-cell; white-space: nowrap; line-height: 1.5; max-width: 200px; text-align: center;"><span class="nodeLabel"><p>data 模块内部</p></span></div></foreignObject></g></g></g><g class="edgePaths"><path d="M146.664,654L160.861,639.667C175.057,625.333,203.451,596.667,221.147,582.333C238.844,568,245.844,568,249.344,568L252.844,568" id="L_DP_HIST_0" class="edge-thickness-normal edge-pattern-solid edge-thickness-normal edge-pattern-solid flowchart-link" style=";" data-edge="true" data-et="edge" data-id="L_DP_HIST_0" data-points="W3sieCI6MTQ2LjY2NDI2OTkxMTUwNDQyLCJ5Ijo2NTR9LHsieCI6MjMxLjg0Mzc1LCJ5Ijo1Njh9LHsieCI6MjU2Ljg0Mzc1LCJ5Ijo1Njh9XQ==" marker-end="url(#container_flowchart-v2-pointEnd)"></path><path d="M178.035,708L187.003,712.167C195.971,716.333,213.908,724.667,236.926,728.833C259.945,733,288.047,733,316.148,733C344.25,733,372.352,733,407.56,733C442.768,733,485.083,733,527.398,733C569.714,733,612.029,733,649.174,733C686.32,733,718.297,733,750.273,733C782.25,733,814.227,733,834.382,733C854.536,733,862.87,733,871.203,733C879.536,733,887.87,733,907.56,684.635C927.251,636.27,958.298,539.539,973.822,491.174L989.346,442.809" id="L_DP_EXC_0" class="edge-thickness-normal edge-pattern-solid edge-thickness-normal edge-pattern-solid flowchart-link" style=";" data-edge="true" data-et="edge" data-id="L_DP_EXC_0" data-points="W3sieCI6MTc4LjAzNTE1NjI1LCJ5Ijo3MDh9LHsieCI6MjMxLjg0Mzc1LCJ5Ijo3MzN9LHsieCI6MzE2LjE0ODQzNzUsInkiOjczM30seyJ4Ijo0MDAuNDUzMTI1LCJ5Ijo3MzN9LHsieCI6NTI3LjM5ODQzNzUsInkiOjczM30seyJ4Ijo2NTQuMzQzNzUsInkiOjczM30seyJ4Ijo3NTAuMjczNDM3NSwieSI6NzMzfSx7IngiOjg0Ni4yMDMxMjUsInkiOjczM30seyJ4Ijo4NzEuMjAzMTI1LCJ5Ijo3MzN9LHsieCI6ODk2LjIwMzEyNSwieSI6NzMzfSx7IngiOjk5MC41NjgxOTUwOTM0NTc5LCJ5Ijo0Mzl9XQ==" marker-end="url(#container_flowchart-v2-pointEnd)"></path><path d="M161.893,708L173.551,715.5C185.21,723,208.527,738,234.236,745.5C259.945,753,288.047,753,316.148,753C344.25,753,372.352,753,407.56,753C442.768,753,485.083,753,527.398,753C569.714,753,612.029,753,649.174,753C686.32,753,718.297,753,750.273,753C782.25,753,814.227,753,834.382,753C854.536,753,862.87,753,871.203,753C879.536,753,887.87,753,905.043,737.346C922.217,721.692,948.23,690.384,961.237,674.73L974.244,659.077" id="L_DP_ENUM_0" class="edge-thickness-normal edge-pattern-solid edge-thickness-normal edge-pattern-solid flowchart-link" style=";" data-edge="true" data-et="edge" data-id="L_DP_ENUM_0" data-points="W3sieCI6MTYxLjg5MjU3ODEyNSwieSI6NzA4fSx7IngiOjIzMS44NDM3NSwieSI6NzUzfSx7IngiOjMxNi4xNDg0Mzc1LCJ5Ijo3NTN9LHsieCI6NDAwLjQ1MzEyNSwieSI6NzUzfSx7IngiOjUyNy4zOTg0Mzc1LCJ5Ijo3NTN9LHsieCI6NjU0LjM0Mzc1LCJ5Ijo3NTN9LHsieCI6NzUwLjI3MzQzNzUsInkiOjc1M30seyJ4Ijo4NDYuMjAzMTI1LCJ5Ijo3NTN9LHsieCI6ODcxLjIwMzEyNSwieSI6NzUzfSx7IngiOjg5Ni4yMDMxMjUsInkiOjc1M30seyJ4Ijo5NzYuODAwMTUxMjA5Njc3NCwieSI6NjU2fV0=" marker-end="url(#container_flowchart-v2-pointEnd)"></path><path d="M140.763,708L155.943,727.667C171.123,747.333,201.483,786.667,230.714,806.333C259.945,826,288.047,826,316.148,826C344.25,826,372.352,826,407.56,826C442.768,826,485.083,826,527.398,826C569.714,826,612.029,826,649.174,826C686.32,826,718.297,826,750.273,826C782.25,826,814.227,826,834.382,826C854.536,826,862.87,826,871.203,826C879.536,826,887.87,826,904.732,840.17C921.594,854.34,946.985,882.681,959.68,896.851L972.375,911.021" id="L_DP_RPC_0" class="edge-thickness-normal edge-pattern-solid edge-thickness-normal edge-pattern-solid flowchart-link" style=";" data-edge="true" data-et="edge" data-id="L_DP_RPC_0" data-points="W3sieCI6MTQwLjc2MjUsInkiOjcwOH0seyJ4IjoyMzEuODQzNzUsInkiOjgyNn0seyJ4IjozMTYuMTQ4NDM3NSwieSI6ODI2fSx7IngiOjQwMC40NTMxMjUsInkiOjgyNn0seyJ4Ijo1MjcuMzk4NDM3NSwieSI6ODI2fSx7IngiOjY1NC4zNDM3NSwieSI6ODI2fSx7IngiOjc1MC4yNzM0Mzc1LCJ5Ijo4MjZ9LHsieCI6ODQ2LjIwMzEyNSwieSI6ODI2fSx7IngiOjg3MS4yMDMxMjUsInkiOjgyNn0seyJ4Ijo4OTYuMjAzMTI1LCJ5Ijo4MjZ9LHsieCI6OTc1LjA0NDQyOTM0NzgyNiwieSI6OTE0fV0=" marker-end="url(#container_flowchart-v2-pointEnd)"></path><path d="M138.236,708L153.838,731C169.439,754,200.641,800,230.293,823C259.945,846,288.047,846,316.148,846C344.25,846,372.352,846,407.56,846C442.768,846,485.083,846,527.398,846C569.714,846,612.029,846,649.174,846C686.32,846,718.297,846,750.273,846C782.25,846,814.227,846,834.382,846C854.536,846,862.87,846,871.203,846C879.536,846,887.87,846,907.605,796.136C927.34,746.273,958.476,646.545,974.044,596.682L989.612,546.818" id="L_DP_CFG_0" class="edge-thickness-normal edge-pattern-solid edge-thickness-normal edge-pattern-solid flowchart-link" style=";" data-edge="true" data-et="edge" data-id="L_DP_CFG_0" data-points="W3sieCI6MTM4LjIzNjM2MzYzNjM2MzY1LCJ5Ijo3MDh9LHsieCI6MjMxLjg0Mzc1LCJ5Ijo4NDZ9LHsieCI6MzE2LjE0ODQzNzUsInkiOjg0Nn0seyJ4Ijo0MDAuNDUzMTI1LCJ5Ijo4NDZ9LHsieCI6NTI3LjM5ODQzNzUsInkiOjg0Nn0seyJ4Ijo2NTQuMzQzNzUsInkiOjg0Nn0seyJ4Ijo3NTAuMjczNDM3NSwieSI6ODQ2fSx7IngiOjg0Ni4yMDMxMjUsInkiOjg0Nn0seyJ4Ijo4NzEuMjAzMTI1LCJ5Ijo4NDZ9LHsieCI6ODk2LjIwMzEyNSwieSI6ODQ2fSx7IngiOjk5MC44MDQ1NDU0NTQ1NDU0LCJ5Ijo1NDN9XQ==" marker-end="url(#container_flowchart-v2-pointEnd)"></path><path d="M629.344,195L633.51,195C637.677,195,646.01,195,653.677,195C661.344,195,668.344,195,671.844,195L675.344,195" id="L_EEA_BTA_0" class="edge-thickness-normal edge-pattern-solid edge-thickness-normal edge-pattern-solid flowchart-link" style=";" data-edge="true" data-et="edge" data-id="L_EEA_BTA_0" data-points="W3sieCI6NjI5LjM0Mzc1LCJ5IjoxOTV9LHsieCI6NjU0LjM0Mzc1LCJ5IjoxOTV9LHsieCI6Njc5LjM0Mzc1LCJ5IjoxOTV9XQ==" marker-end="url(#container_flowchart-v2-pointEnd)"></path><path d="M541.164,222L560.027,259C578.89,296,616.617,370,651.469,407C686.32,444,718.297,444,750.273,444C782.25,444,814.227,444,834.382,444C854.536,444,862.87,444,871.203,444C879.536,444,887.87,444,902.222,451.118C916.575,458.236,936.947,472.473,947.133,479.591L957.319,486.709" id="L_EEA_CFG_0" class="edge-thickness-normal edge-pattern-solid edge-thickness-normal edge-pattern-solid flowchart-link" style=";" data-edge="true" data-et="edge" data-id="L_EEA_CFG_0" data-points="W3sieCI6NTQxLjE2MzU5MTg2NzQ2OTksInkiOjIyMn0seyJ4Ijo2NTQuMzQzNzUsInkiOjQ0NH0seyJ4Ijo3NTAuMjczNDM3NSwieSI6NDQ0fSx7IngiOjg0Ni4yMDMxMjUsInkiOjQ0NH0seyJ4Ijo4NzEuMjAzMTI1LCJ5Ijo0NDR9LHsieCI6ODk2LjIwMzEyNSwieSI6NDQ0fSx7IngiOjk2MC41OTc2NTYyNSwieSI6NDg5fV0=" marker-end="url(#container_flowchart-v2-pointEnd)"></path><path d="M347.33,541L356.184,533.333C365.037,525.667,382.745,510.333,398.362,502.667C413.979,495,427.505,495,434.268,495L441.031,495" id="L_HIST_DH_0" class="edge-thickness-normal edge-pattern-solid edge-thickness-normal edge-pattern-solid flowchart-link" style=";" data-edge="true" data-et="edge" data-id="L_HIST_DH_0" data-points="W3sieCI6MzQ3LjMyOTYyMzI4NzY3MTIsInkiOjU0MX0seyJ4Ijo0MDAuNDUzMTI1LCJ5Ijo0OTV9LHsieCI6NDQ1LjAzMTI1LCJ5Ijo0OTV9XQ==" marker-end="url(#container_flowchart-v2-pointEnd)"></path><path d="M344.25,595L353.617,604C362.984,613,381.719,631,412.243,640C442.768,649,485.083,649,527.398,649C569.714,649,612.029,649,644.529,636.821C677.029,624.642,699.715,600.285,711.058,588.106L722.401,575.927" id="L_HIST_CV_0" class="edge-thickness-normal edge-pattern-solid edge-thickness-normal edge-pattern-solid flowchart-link" style=";" data-edge="true" data-et="edge" data-id="L_HIST_CV_0" data-points="W3sieCI6MzQ0LjI1LCJ5Ijo1OTV9LHsieCI6NDAwLjQ1MzEyNSwieSI6NjQ5fSx7IngiOjUyNy4zOTg0Mzc1LCJ5Ijo2NDl9LHsieCI6NjU0LjM0Mzc1LCJ5Ijo2NDl9LHsieCI6NzI1LjEyNjgyMDM4ODM0OTUsInkiOjU3M31d" marker-end="url(#container_flowchart-v2-pointEnd)"></path><path d="M338.685,595L348.98,607.333C359.275,619.667,379.864,644.333,411.316,656.667C442.768,669,485.083,669,527.398,669C569.714,669,612.029,669,649.174,669C686.32,669,718.297,669,750.273,669C782.25,669,814.227,669,834.382,669C854.536,669,862.87,669,871.203,669C879.536,669,887.87,669,907.156,631.285C926.443,593.571,956.682,518.142,971.802,480.427L986.922,442.713" id="L_HIST_EXC_0" class="edge-thickness-normal edge-pattern-solid edge-thickness-normal edge-pattern-solid flowchart-link" style=";" data-edge="true" data-et="edge" data-id="L_HIST_EXC_0" data-points="W3sieCI6MzM4LjY4NTMzNDE1ODQxNTg2LCJ5Ijo1OTV9LHsieCI6NDAwLjQ1MzEyNSwieSI6NjY5fSx7IngiOjUyNy4zOTg0Mzc1LCJ5Ijo2Njl9LHsieCI6NjU0LjM0Mzc1LCJ5Ijo2Njl9LHsieCI6NzUwLjI3MzQzNzUsInkiOjY2OX0seyJ4Ijo4NDYuMjAzMTI1LCJ5Ijo2Njl9LHsieCI6ODcxLjIwMzEyNSwieSI6NjY5fSx7IngiOjg5Ni4yMDMxMjUsInkiOjY2OX0seyJ4Ijo5ODguNDEwMDgwMjUyOTE4MywieSI6NDM5fV0=" marker-end="url(#container_flowchart-v2-pointEnd)"></path><path d="M334.505,595L345.496,611.167C356.488,627.333,378.47,659.667,410.619,675.833C442.768,692,485.083,692,527.398,692C569.714,692,612.029,692,649.174,692C686.32,692,718.297,692,750.273,692C782.25,692,814.227,692,834.382,692C854.536,692,862.87,692,871.203,692C879.536,692,887.87,692,899.157,694.833C910.443,697.667,924.684,703.334,931.804,706.167L938.924,709" id="L_HIST_PLUGIN_0" class="edge-thickness-normal edge-pattern-solid edge-thickness-normal edge-pattern-solid flowchart-link" style=";" data-edge="true" data-et="edge" data-id="L_HIST_PLUGIN_0" data-points="W3sieCI6MzM0LjUwNTEwMzMyNjYxMjksInkiOjU5NX0seyJ4Ijo0MDAuNDUzMTI1LCJ5Ijo2OTJ9LHsieCI6NTI3LjM5ODQzNzUsInkiOjY5Mn0seyJ4Ijo2NTQuMzQzNzUsInkiOjY5Mn0seyJ4Ijo3NTAuMjczNDM3NSwieSI6NjkyfSx7IngiOjg0Ni4yMDMxMjUsInkiOjY5Mn0seyJ4Ijo4NzEuMjAzMTI1LCJ5Ijo2OTJ9LHsieCI6ODk2LjIwMzEyNSwieSI6NjkyfSx7IngiOjk0Mi42NDA2MjUsInkiOjcxMC40NzkyMjM1MzY1NDg0fV0=" marker-end="url(#container_flowchart-v2-pointEnd)"></path><path d="M609.766,474.886L617.195,473.072C624.625,471.257,639.484,467.629,657.131,474.548C674.778,481.467,695.212,498.934,705.429,507.667L715.646,516.401" id="L_DH_CV_0" class="edge-thickness-normal edge-pattern-solid edge-thickness-normal edge-pattern-solid flowchart-link" style=";" data-edge="true" data-et="edge" data-id="L_DH_CV_0" data-points="W3sieCI6NjA5Ljc2NTYyNSwieSI6NDc0Ljg4NTk2MjIxMzA1OTI2fSx7IngiOjY1NC4zNDM3NSwieSI6NDY0fSx7IngiOjcxOC42ODY4MzMwNzkyNjgyLCJ5Ijo1MTl9XQ==" marker-end="url(#container_flowchart-v2-pointEnd)"></path><path d="M609.766,487.863L617.195,487.219C624.625,486.575,639.484,485.288,662.902,484.644C686.32,484,718.297,484,750.273,484C782.25,484,814.227,484,834.382,484C854.536,484,862.87,484,871.203,484C879.536,484,887.87,484,907.502,437.466C927.135,390.932,958.067,297.864,973.533,251.33L988.999,204.796" id="L_DH_MISC_0" class="edge-thickness-normal edge-pattern-solid edge-thickness-normal edge-pattern-solid flowchart-link" style=";" data-edge="true" data-et="edge" data-id="L_DH_MISC_0" data-points="W3sieCI6NjA5Ljc2NTYyNSwieSI6NDg3Ljg2Mjc2MDc4NTI3OTF9LHsieCI6NjU0LjM0Mzc1LCJ5Ijo0ODR9LHsieCI6NzUwLjI3MzQzNzUsInkiOjQ4NH0seyJ4Ijo4NDYuMjAzMTI1LCJ5Ijo0ODR9LHsieCI6ODcxLjIwMzEyNSwieSI6NDg0fSx7IngiOjg5Ni4yMDMxMjUsInkiOjQ4NH0seyJ4Ijo5OTAuMjYwNjg1NDgzODcwOSwieSI6MjAxfV0=" marker-end="url(#container_flowchart-v2-pointEnd)"></path><path d="M557.731,522L573.833,536.333C589.935,550.667,622.139,579.333,654.23,593.667C686.32,608,718.297,608,750.273,608C782.25,608,814.227,608,834.382,608C854.536,608,862.87,608,871.203,608C879.536,608,887.87,608,899.506,609.522C911.141,611.045,926.08,614.09,933.549,615.612L941.018,617.134" id="L_DH_ENUM_0" class="edge-thickness-normal edge-pattern-solid edge-thickness-normal edge-pattern-solid flowchart-link" style=";" data-edge="true" data-et="edge" data-id="L_DH_ENUM_0" data-points="W3sieCI6NTU3LjczMDUwMzMxODU4NCwieSI6NTIyfSx7IngiOjY1NC4zNDM3NSwieSI6NjA4fSx7IngiOjc1MC4yNzM0Mzc1LCJ5Ijo2MDh9LHsieCI6ODQ2LjIwMzEyNSwieSI6NjA4fSx7IngiOjg3MS4yMDMxMjUsInkiOjYwOH0seyJ4Ijo4OTYuMjAzMTI1LCJ5Ijo2MDh9LHsieCI6OTQ0LjkzNzUsInkiOjYxNy45MzMxMjEwMTkxMDgzfV0=" marker-end="url(#container_flowchart-v2-pointEnd)"></path><path d="M818.492,531.066L823.111,530.055C827.729,529.044,836.966,527.022,845.751,526.011C854.536,525,862.87,525,871.203,525C879.536,525,887.87,525,904.656,511.159C921.442,497.319,946.682,469.637,959.302,455.796L971.921,441.956" id="L_CV_EXC_0" class="edge-thickness-normal edge-pattern-solid edge-thickness-normal edge-pattern-solid flowchart-link" style=";" data-edge="true" data-et="edge" data-id="L_CV_EXC_0" data-points="W3sieCI6ODE4LjQ5MjE4NzUsInkiOjUzMS4wNjYyMTA2MDM0Njk0fSx7IngiOjg0Ni4yMDMxMjUsInkiOjUyNX0seyJ4Ijo4NzEuMjAzMTI1LCJ5Ijo1MjV9LHsieCI6ODk2LjIwMzEyNSwieSI6NTI1fSx7IngiOjk3NC42MTYyODg3MTY4MTQyLCJ5Ijo0Mzl9XQ==" marker-end="url(#container_flowchart-v2-pointEnd)"></path><path d="M818.492,546L823.111,546C827.729,546,836.966,546,845.751,546C854.536,546,862.87,546,871.203,546C879.536,546,887.87,546,907.239,506.456C926.608,466.911,957.014,387.822,972.216,348.278L987.419,308.734" id="L_CV_CONST_0" class="edge-thickness-normal edge-pattern-solid edge-thickness-normal edge-pattern-solid flowchart-link" style=";" data-edge="true" data-et="edge" data-id="L_CV_CONST_0" data-points="W3sieCI6ODE4LjQ5MjE4NzUsInkiOjU0Nn0seyJ4Ijo4NDYuMjAzMTI1LCJ5Ijo1NDZ9LHsieCI6ODcxLjIwMzEyNSwieSI6NTQ2fSx7IngiOjg5Ni4yMDMxMjUsInkiOjU0Nn0seyJ4Ijo5ODguODU0MzYxMDA3NDYyNywieSI6MzA1fV0=" marker-end="url(#container_flowchart-v2-pointEnd)"></path><path d="M818.492,560.934L823.111,561.945C827.729,562.956,836.966,564.978,845.751,565.989C854.536,567,862.87,567,871.203,567C879.536,567,887.87,567,901.159,572.49C914.448,577.979,932.693,588.958,941.816,594.448L950.939,599.938" id="L_CV_ENUM_0" class="edge-thickness-normal edge-pattern-solid edge-thickness-normal edge-pattern-solid flowchart-link" style=";" data-edge="true" data-et="edge" data-id="L_CV_ENUM_0" data-points="W3sieCI6ODE4LjQ5MjE4NzUsInkiOjU2MC45MzM3ODkzOTY1MzA2fSx7IngiOjg0Ni4yMDMxMjUsInkiOjU2N30seyJ4Ijo4NzEuMjAzMTI1LCJ5Ijo1Njd9LHsieCI6ODk2LjIwMzEyNSwieSI6NTY3fSx7IngiOjk1NC4zNjU5Mjc0MTkzNTQ5LCJ5Ijo2MDJ9XQ==" marker-end="url(#container_flowchart-v2-pointEnd)"></path><path d="M770.994,168L783.529,151.667C796.064,135.333,821.133,102.667,837.835,86.333C854.536,70,862.87,70,871.203,70C879.536,70,887.87,70,896.6,70C905.331,70,914.458,70,919.022,70L923.586,70" id="L_BTA_PERSIST_0" class="edge-thickness-normal edge-pattern-solid edge-thickness-normal edge-pattern-solid flowchart-link" style=";" data-edge="true" data-et="edge" data-id="L_BTA_PERSIST_0" data-points="W3sieCI6NzcwLjk5NDI1LCJ5IjoxNjh9LHsieCI6ODQ2LjIwMzEyNSwieSI6NzB9LHsieCI6ODcxLjIwMzEyNSwieSI6NzB9LHsieCI6ODk2LjIwMzEyNSwieSI6NzB9LHsieCI6OTI3LjU4NTkzNzUsInkiOjcwfV0=" marker-end="url(#container_flowchart-v2-pointEnd)"></path><path d="M821.203,179.473L825.37,178.561C829.536,177.649,837.87,175.824,846.203,174.912C854.536,174,862.87,174,871.203,174C879.536,174,887.87,174,900.762,174C913.654,174,931.104,174,939.829,174L948.555,174" id="L_BTA_MISC_0" class="edge-thickness-normal edge-pattern-solid edge-thickness-normal edge-pattern-solid flowchart-link" style=";" data-edge="true" data-et="edge" data-id="L_BTA_MISC_0" data-points="W3sieCI6ODIxLjIwMzEyNSwieSI6MTc5LjQ3Mjc1ODM2Nzk0NTI2fSx7IngiOjg0Ni4yMDMxMjUsInkiOjE3NH0seyJ4Ijo4NzEuMjAzMTI1LCJ5IjoxNzR9LHsieCI6ODk2LjIwMzEyNSwieSI6MTc0fSx7IngiOjk1Mi41NTQ2ODc1LCJ5IjoxNzR9XQ==" marker-end="url(#container_flowchart-v2-pointEnd)"></path><path d="M781.479,222L792.267,231.333C803.054,240.667,824.629,259.333,839.583,268.667C854.536,278,862.87,278,871.203,278C879.536,278,887.87,278,897.665,278C907.461,278,918.719,278,924.348,278L929.977,278" id="L_BTA_CONST_0" class="edge-thickness-normal edge-pattern-solid edge-thickness-normal edge-pattern-solid flowchart-link" style=";" data-edge="true" data-et="edge" data-id="L_BTA_CONST_0" data-points="W3sieCI6NzgxLjQ3OTQ4MDQyMTY4NjcsInkiOjIyMn0seyJ4Ijo4NDYuMjAzMTI1LCJ5IjoyNzh9LHsieCI6ODcxLjIwMzEyNSwieSI6Mjc4fSx7IngiOjg5Ni4yMDMxMjUsInkiOjI3OH0seyJ4Ijo5MzMuOTc2NTYyNSwieSI6Mjc4fV0=" marker-end="url(#container_flowchart-v2-pointEnd)"></path></g><g class="edgeLabels"><g class="edgeLabel"><g class="label" data-id="L_DP_HIST_0" transform="translate(0, 0)"><foreignObject width="0" height="0"><div xmlns="http://www.w3.org/1999/xhtml" class="labelBkg" style="display: table-cell; white-space: nowrap; line-height: 1.5; max-width: 200px; text-align: center;"><span class="edgeLabel"></span></div></foreignObject></g></g><g class="edgeLabel"><g class="label" data-id="L_DP_EXC_0" transform="translate(0, 0)"><foreignObject width="0" height="0"><div xmlns="http://www.w3.org/1999/xhtml" class="labelBkg" style="display: table-cell; white-space: nowrap; line-height: 1.5; max-width: 200px; text-align: center;"><span class="edgeLabel"></span></div></foreignObject></g></g><g class="edgeLabel"><g class="label" data-id="L_DP_ENUM_0" transform="translate(0, 0)"><foreignObject width="0" height="0"><div xmlns="http://www.w3.org/1999/xhtml" class="labelBkg" style="display: table-cell; white-space: nowrap; line-height: 1.5; max-width: 200px; text-align: center;"><span class="edgeLabel"></span></div></foreignObject></g></g><g class="edgeLabel"><g class="label" data-id="L_DP_RPC_0" transform="translate(0, 0)"><foreignObject width="0" height="0"><div xmlns="http://www.w3.org/1999/xhtml" class="labelBkg" style="display: table-cell; white-space: nowrap; line-height: 1.5; max-width: 200px; text-align: center;"><span class="edgeLabel"></span></div></foreignObject></g></g><g class="edgeLabel"><g class="label" data-id="L_DP_CFG_0" transform="translate(0, 0)"><foreignObject width="0" height="0"><div xmlns="http://www.w3.org/1999/xhtml" class="labelBkg" style="display: table-cell; white-space: nowrap; line-height: 1.5; max-width: 200px; text-align: center;"><span class="edgeLabel"></span></div></foreignObject></g></g><g class="edgeLabel"><g class="label" data-id="L_EEA_BTA_0" transform="translate(0, 0)"><foreignObject width="0" height="0"><div xmlns="http://www.w3.org/1999/xhtml" class="labelBkg" style="display: table-cell; white-space: nowrap; line-height: 1.5; max-width: 200px; text-align: center;"><span class="edgeLabel"></span></div></foreignObject></g></g><g class="edgeLabel"><g class="label" data-id="L_EEA_CFG_0" transform="translate(0, 0)"><foreignObject width="0" height="0"><div xmlns="http://www.w3.org/1999/xhtml" class="labelBkg" style="display: table-cell; white-space: nowrap; line-height: 1.5; max-width: 200px; text-align: center;"><span class="edgeLabel"></span></div></foreignObject></g></g><g class="edgeLabel"><g class="label" data-id="L_HIST_DH_0" transform="translate(0, 0)"><foreignObject width="0" height="0"><div xmlns="http://www.w3.org/1999/xhtml" class="labelBkg" style="display: table-cell; white-space: nowrap; line-height: 1.5; max-width: 200px; text-align: center;"><span class="edgeLabel"></span></div></foreignObject></g></g><g class="edgeLabel"><g class="label" data-id="L_HIST_CV_0" transform="translate(0, 0)"><foreignObject width="0" height="0"><div xmlns="http://www.w3.org/1999/xhtml" class="labelBkg" style="display: table-cell; white-space: nowrap; line-height: 1.5; max-width: 200px; text-align: center;"><span class="edgeLabel"></span></div></foreignObject></g></g><g class="edgeLabel"><g class="label" data-id="L_HIST_EXC_0" transform="translate(0, 0)"><foreignObject width="0" height="0"><div xmlns="http://www.w3.org/1999/xhtml" class="labelBkg" style="display: table-cell; white-space: nowrap; line-height: 1.5; max-width: 200px; text-align: center;"><span class="edgeLabel"></span></div></foreignObject></g></g><g class="edgeLabel"><g class="label" data-id="L_HIST_PLUGIN_0" transform="translate(0, 0)"><foreignObject width="0" height="0"><div xmlns="http://www.w3.org/1999/xhtml" class="labelBkg" style="display: table-cell; white-space: nowrap; line-height: 1.5; max-width: 200px; text-align: center;"><span class="edgeLabel"></span></div></foreignObject></g></g><g class="edgeLabel"><g class="label" data-id="L_DH_CV_0" transform="translate(0, 0)"><foreignObject width="0" height="0"><div xmlns="http://www.w3.org/1999/xhtml" class="labelBkg" style="display: table-cell; white-space: nowrap; line-height: 1.5; max-width: 200px; text-align: center;"><span class="edgeLabel"></span></div></foreignObject></g></g><g class="edgeLabel"><g class="label" data-id="L_DH_MISC_0" transform="translate(0, 0)"><foreignObject width="0" height="0"><div xmlns="http://www.w3.org/1999/xhtml" class="labelBkg" style="display: table-cell; white-space: nowrap; line-height: 1.5; max-width: 200px; text-align: center;"><span class="edgeLabel"></span></div></foreignObject></g></g><g class="edgeLabel"><g class="label" data-id="L_DH_ENUM_0" transform="translate(0, 0)"><foreignObject width="0" height="0"><div xmlns="http://www.w3.org/1999/xhtml" class="labelBkg" style="display: table-cell; white-space: nowrap; line-height: 1.5; max-width: 200px; text-align: center;"><span class="edgeLabel"></span></div></foreignObject></g></g><g class="edgeLabel"><g class="label" data-id="L_CV_EXC_0" transform="translate(0, 0)"><foreignObject width="0" height="0"><div xmlns="http://www.w3.org/1999/xhtml" class="labelBkg" style="display: table-cell; white-space: nowrap; line-height: 1.5; max-width: 200px; text-align: center;"><span class="edgeLabel"></span></div></foreignObject></g></g><g class="edgeLabel"><g class="label" data-id="L_CV_CONST_0" transform="translate(0, 0)"><foreignObject width="0" height="0"><div xmlns="http://www.w3.org/1999/xhtml" class="labelBkg" style="display: table-cell; white-space: nowrap; line-height: 1.5; max-width: 200px; text-align: center;"><span class="edgeLabel"></span></div></foreignObject></g></g><g class="edgeLabel"><g class="label" data-id="L_CV_ENUM_0" transform="translate(0, 0)"><foreignObject width="0" height="0"><div xmlns="http://www.w3.org/1999/xhtml" class="labelBkg" style="display: table-cell; white-space: nowrap; line-height: 1.5; max-width: 200px; text-align: center;"><span class="edgeLabel"></span></div></foreignObject></g></g><g class="edgeLabel"><g class="label" data-id="L_BTA_PERSIST_0" transform="translate(0, 0)"><foreignObject width="0" height="0"><div xmlns="http://www.w3.org/1999/xhtml" class="labelBkg" style="display: table-cell; white-space: nowrap; line-height: 1.5; max-width: 200px; text-align: center;"><span class="edgeLabel"></span></div></foreignObject></g></g><g class="edgeLabel"><g class="label" data-id="L_BTA_MISC_0" transform="translate(0, 0)"><foreignObject width="0" height="0"><div xmlns="http://www.w3.org/1999/xhtml" class="labelBkg" style="display: table-cell; white-space: nowrap; line-height: 1.5; max-width: 200px; text-align: center;"><span class="edgeLabel"></span></div></foreignObject></g></g><g class="edgeLabel"><g class="label" data-id="L_BTA_CONST_0" transform="translate(0, 0)"><foreignObject width="0" height="0"><div xmlns="http://www.w3.org/1999/xhtml" class="labelBkg" style="display: table-cell; white-space: nowrap; line-height: 1.5; max-width: 200px; text-align: center;"><span class="edgeLabel"></span></div></foreignObject></g></g></g><g class="nodes"><g class="node default" id="flowchart-DP-0" transform="translate(119.921875, 681)"><rect class="basic label-container" style="" x="-86.921875" y="-27" width="173.84375" height="54"></rect><g class="label" style="" transform="translate(-56.921875, -12)"><rect></rect><foreignObject width="113.84375" height="24"><div xmlns="http://www.w3.org/1999/xhtml" style="display: table-cell; white-space: nowrap; line-height: 1.5; max-width: 200px; text-align: center;"><span class="nodeLabel"><p>dataprovider.py</p></span></div></foreignObject></g></g><g class="node default" id="flowchart-EEA-1" transform="translate(527.3984375, 195)"><rect class="basic label-container" style="" x="-101.9453125" y="-27" width="203.890625" height="54"></rect><g class="label" style="" transform="translate(-71.9453125, -12)"><rect></rect><foreignObject width="143.890625" height="24"><div xmlns="http://www.w3.org/1999/xhtml" style="display: table-cell; white-space: nowrap; line-height: 1.5; max-width: 200px; text-align: center;"><span class="nodeLabel"><p>entryexitanalysis.py</p></span></div></foreignObject></g></g><g class="node default" id="flowchart-MT-2" transform="translate(750.2734375, 81)"><rect class="basic label-container" style="" x="-67.5859375" y="-27" width="135.171875" height="54"></rect><g class="label" style="" transform="translate(-37.5859375, -12)"><rect></rect><foreignObject width="75.171875" height="24"><div xmlns="http://www.w3.org/1999/xhtml" style="display: table-cell; white-space: nowrap; line-height: 1.5; max-width: 200px; text-align: center;"><span class="nodeLabel"><p>metrics.py</p></span></div></foreignObject></g></g><g class="node default" id="flowchart-BTA-3" transform="translate(750.2734375, 195)"><rect class="basic label-container" style="" x="-70.9296875" y="-27" width="141.859375" height="54"></rect><g class="label" style="" transform="translate(-40.9296875, -12)"><rect></rect><foreignObject width="81.859375" height="24"><div xmlns="http://www.w3.org/1999/xhtml" style="display: table-cell; white-space: nowrap; line-height: 1.5; max-width: 200px; text-align: center;"><span class="nodeLabel"><p>btanalysis/</p></span></div></foreignObject></g></g><g class="node default" id="flowchart-CV-4" transform="translate(750.2734375, 546)"><rect class="basic label-container" style="" x="-68.21875" y="-27" width="136.4375" height="54"></rect><g class="label" style="" transform="translate(-38.21875, -12)"><rect></rect><foreignObject width="76.4375" height="24"><div xmlns="http://www.w3.org/1999/xhtml" style="display: table-cell; white-space: nowrap; line-height: 1.5; max-width: 200px; text-align: center;"><span class="nodeLabel"><p>converter/</p></span></div></foreignObject></g></g><g class="node default" id="flowchart-HIST-5" transform="translate(316.1484375, 568)"><rect class="basic label-container" style="" x="-59.3046875" y="-27" width="118.609375" height="54"></rect><g class="label" style="" transform="translate(-29.3046875, -12)"><rect></rect><foreignObject width="58.609375" height="24"><div xmlns="http://www.w3.org/1999/xhtml" style="display: table-cell; white-space: nowrap; line-height: 1.5; max-width: 200px; text-align: center;"><span class="nodeLabel"><p>history/</p></span></div></foreignObject></g></g><g class="node default" id="flowchart-DH-6" transform="translate(527.3984375, 495)"><rect class="basic label-container" style="" x="-82.3671875" y="-27" width="164.734375" height="54"></rect><g class="label" style="" transform="translate(-52.3671875, -12)"><rect></rect><foreignObject width="104.734375" height="24"><div xmlns="http://www.w3.org/1999/xhtml" style="display: table-cell; white-space: nowrap; line-height: 1.5; max-width: 200px; text-align: center;"><span class="nodeLabel"><p>datahandlers/</p></span></div></foreignObject></g></g><g class="node default" id="flowchart-CFG-7" transform="translate(999.234375, 516)"><rect class="basic label-container" style="" x="-78.03125" y="-27" width="156.0625" height="54"></rect><g class="label" style="" transform="translate(-48.03125, -12)"><rect></rect><foreignObject width="96.0625" height="24"><div xmlns="http://www.w3.org/1999/xhtml" style="display: table-cell; white-space: nowrap; line-height: 1.5; max-width: 200px; text-align: center;"><span class="nodeLabel"><p>configuration</p></span></div></foreignObject></g></g><g class="node default" id="flowchart-ENUM-8" transform="translate(999.234375, 629)"><rect class="basic label-container" style="" x="-54.296875" y="-27" width="108.59375" height="54"></rect><g class="label" style="" transform="translate(-24.296875, -12)"><rect></rect><foreignObject width="48.59375" height="24"><div xmlns="http://www.w3.org/1999/xhtml" style="display: table-cell; white-space: nowrap; line-height: 1.5; max-width: 200px; text-align: center;"><span class="nodeLabel"><p>enums</p></span></div></foreignObject></g></g><g class="node default" id="flowchart-EXC-9" transform="translate(999.234375, 412)"><rect class="basic label-container" style="" x="-64.046875" y="-27" width="128.09375" height="54"></rect><g class="label" style="" transform="translate(-34.046875, -12)"><rect></rect><foreignObject width="68.09375" height="24"><div xmlns="http://www.w3.org/1999/xhtml" style="display: table-cell; white-space: nowrap; line-height: 1.5; max-width: 200px; text-align: center;"><span class="nodeLabel"><p>exchange</p></span></div></foreignObject></g></g><g class="node default" id="flowchart-PERSIST-10" transform="translate(999.234375, 70)"><rect class="basic label-container" style="" x="-71.6484375" y="-27" width="143.296875" height="54"></rect><g class="label" style="" transform="translate(-41.6484375, -12)"><rect></rect><foreignObject width="83.296875" height="24"><div xmlns="http://www.w3.org/1999/xhtml" style="display: table-cell; white-space: nowrap; line-height: 1.5; max-width: 200px; text-align: center;"><span class="nodeLabel"><p>persistence</p></span></div></foreignObject></g></g><g class="node default" id="flowchart-RPC-11" transform="translate(999.234375, 941)"><rect class="basic label-container" style="" x="-41.6640625" y="-27" width="83.328125" height="54"></rect><g class="label" style="" transform="translate(-11.6640625, -12)"><rect></rect><foreignObject width="23.328125" height="24"><div xmlns="http://www.w3.org/1999/xhtml" style="display: table-cell; white-space: nowrap; line-height: 1.5; max-width: 200px; text-align: center;"><span class="nodeLabel"><p>rpc</p></span></div></foreignObject></g></g><g class="node default" id="flowchart-MISC-12" transform="translate(999.234375, 174)"><rect class="basic label-container" style="" x="-46.6796875" y="-27" width="93.359375" height="54"></rect><g class="label" style="" transform="translate(-16.6796875, -12)"><rect></rect><foreignObject width="33.359375" height="24"><div xmlns="http://www.w3.org/1999/xhtml" style="display: table-cell; white-space: nowrap; line-height: 1.5; max-width: 200px; text-align: center;"><span class="nodeLabel"><p>misc</p></span></div></foreignObject></g></g><g class="node default" id="flowchart-CONST-13" transform="translate(999.234375, 278)"><rect class="basic label-container" style="" x="-65.2578125" y="-27" width="130.515625" height="54"></rect><g class="label" style="" transform="translate(-35.2578125, -12)"><rect></rect><foreignObject width="70.515625" height="24"><div xmlns="http://www.w3.org/1999/xhtml" style="display: table-cell; white-space: nowrap; line-height: 1.5; max-width: 200px; text-align: center;"><span class="nodeLabel"><p>constants</p></span></div></foreignObject></g></g><g class="node default" id="flowchart-EXCEPT-14" transform="translate(999.234375, 837)"><rect class="basic label-container" style="" x="-69.1171875" y="-27" width="138.234375" height="54"></rect><g class="label" style="" transform="translate(-39.1171875, -12)"><rect></rect><foreignObject width="78.234375" height="24"><div xmlns="http://www.w3.org/1999/xhtml" style="display: table-cell; white-space: nowrap; line-height: 1.5; max-width: 200px; text-align: center;"><span class="nodeLabel"><p>exceptions</p></span></div></foreignObject></g></g><g class="node default" id="flowchart-PLUGIN-15" transform="translate(999.234375, 733)"><rect class="basic label-container" style="" x="-56.59375" y="-27" width="113.1875" height="54"></rect><g class="label" style="" transform="translate(-26.59375, -12)"><rect></rect><foreignObject width="53.1875" height="24"><div xmlns="http://www.w3.org/1999/xhtml" style="display: table-cell; white-space: nowrap; line-height: 1.5; max-width: 200px; text-align: center;"><span class="nodeLabel"><p>plugins</p></span></div></foreignObject></g></g><g class="node default" id="flowchart-RESOLVE-16" transform="translate(999.234375, 1045)"><rect class="basic label-container" style="" x="-62.8515625" y="-27" width="125.703125" height="54"></rect><g class="label" style="" transform="translate(-32.8515625, -12)"><rect></rect><foreignObject width="65.703125" height="24"><div xmlns="http://www.w3.org/1999/xhtml" style="display: table-cell; white-space: nowrap; line-height: 1.5; max-width: 200px; text-align: center;"><span class="nodeLabel"><p>resolvers</p></span></div></foreignObject></g></g><g class="node default" id="flowchart-UTIL-17" transform="translate(999.234375, 1149)"><rect class="basic label-container" style="" x="-42.1484375" y="-27" width="84.296875" height="54"></rect><g class="label" style="" transform="translate(-12.1484375, -12)"><rect></rect><foreignObject width="24.296875" height="24"><div xmlns="http://www.w3.org/1999/xhtml" style="display: table-cell; white-space: nowrap; line-height: 1.5; max-width: 200px; text-align: center;"><span class="nodeLabel"><p>util</p></span></div></foreignObject></g></g></g></g></g></svg>